HIERARCHY
ROOT Hips
{
  OFFSET 0.000000 0.000000 0.000000
  CHANNELS 6 Xposition Yposition Zposition Xrotation Yrotation Zrotation
  JOINT Spine
  {
    OFFSET 0.785918 22.667751 -11.192521
    CHANNELS 3 Xrotation Yrotation Zrotation
    JOINT Chest
    {
      OFFSET 0.785918 22.667751 -11.192521
      CHANNELS 3 Xrotation Yrotation Zrotation
      JOINT Neck
      {
        OFFSET 0.000000 4.280912 0.000000
        CHANNELS 3 Xrotation Yrotation Zrotation
        JOINT Head
        {
          OFFSET 0.000000 4.254871 0.000000
          CHANNELS 3 Xrotation Yrotation Zrotation
          End Site
          {
            OFFSET 0.000000 1.276461 0.000000
          }
        }
      }
      JOINT LeftCollar
      {
        OFFSET 3.000000 4.000000 0.000000
        CHANNELS 3 Xrotation Yrotation Zrotation
        JOINT LeftShoulder
        {
          OFFSET 16.621605 -2.780659 -2.297863
          CHANNELS 3 Xrotation Yrotation Zrotation
          JOINT LeftArm
          {
            OFFSET 7.570161 -18.010043 0.790673
            CHANNELS 3 Xrotation Yrotation Zrotation
            JOINT LeftForeArm
            {
              OFFSET 4.258502 -21.330331 -3.694189
              CHANNELS 3 Xrotation Yrotation Zrotation
              JOINT LeftHand
              {
                OFFSET -1.020528 -3.245478 -1.657259
                CHANNELS 3 Xrotation Yrotation Zrotation
                End Site
                {
                  OFFSET -0.306158 -0.973643 -0.497178
                }
              }
            }
          }
        }
      }
      JOINT RightCollar
      {
        OFFSET -3.000000 4.000000 0.000000
        CHANNELS 3 Xrotation Yrotation Zrotation
        JOINT RightShoulder
        {
          OFFSET -16.621605 2.780659 2.297863
          CHANNELS 3 Xrotation Yrotation Zrotation
          JOINT RightArm
          {
            OFFSET -7.047239 -26.880381 -0.525442
            CHANNELS 3 Xrotation Yrotation Zrotation
            JOINT RightForeArm
            {
              OFFSET -7.219958 -17.761464 -6.028907
              CHANNELS 3 Xrotation Yrotation Zrotation
              JOINT RightHand
              {
                OFFSET 1.362391 -2.129385 -3.788414
                CHANNELS 3 Xrotation Yrotation Zrotation
                End Site
                {
                  OFFSET 0.408717 -0.638815 -1.136524
                }
              }
            }
          }
        }
      }
    }
  }
  JOINT LeftUpLeg
  {
    OFFSET 10.014631 -0.404759 2.482655
    CHANNELS 3 Xrotation Yrotation Zrotation
    JOINT LeftLeg
    {
      OFFSET 2.113296 -38.097659 -0.269871
      CHANNELS 3 Xrotation Yrotation Zrotation
      JOINT LeftFoot
      {
        OFFSET -0.633741 -33.349279 19.614675
        CHANNELS 3 Xrotation Yrotation Zrotation
        End Site
        {
          OFFSET -0.190122 -10.004784 5.884402
        }
      }
    }
  }
  JOINT RightUpLeg
  {
    OFFSET -10.014631 0.404759 -2.482655
    CHANNELS 3 Xrotation Yrotation Zrotation
    JOINT RightLeg
    {
      OFFSET 1.865041 -30.879068 8.259322
      CHANNELS 3 Xrotation Yrotation Zrotation
      JOINT RightFoot
      {
        OFFSET -6.913018 -39.753150 16.368861
        CHANNELS 3 Xrotation Yrotation Zrotation
        End Site
        {
          OFFSET -2.073905 -11.925945 4.910658
        }
      }
    }
  }
}
MOTION
Frames: 14
Frame Time: 0.083333
0.095212 0.188964 0.106194 -2.246541 -1.534075 -3.113335 0.000000 0.000000 0.000000 -26.004750 11.608608 -3.426121 -50.582239 -8.423651 0.635914 0.000000 0.000000 0.000000 28.671040 -7.773505 9.506569 1.846547 2.960059 60.752824 -15.519762 -3.443150 25.295579 -82.304530 -9.348741 78.302362 0.000000 0.000000 0.000000 28.671040 -7.773505 9.506569 9.364177 3.059943 -41.700408 -11.694230 21.044082 -21.374463 14.824934 57.542515 115.432838 0.000000 0.000000 0.000000 5.503052 2.142422 -0.598325 2.179717 -2.052720 0.190274 0.000000 0.000000 0.000000 12.901670 1.905673 -2.729579 -2.465460 -3.833039 -2.291026 0.000000 0.000000 0.000000
0.095531 0.188646 0.106605 -1.939347 -1.546606 -3.137334 0.000000 0.000000 0.000000 -26.000451 11.745261 -3.393997 -50.305642 -8.672592 0.470872 0.000000 0.000000 0.000000 28.360091 -7.773974 9.504190 1.985120 2.676140 56.838482 -14.886622 -3.235677 26.343965 -80.505154 -10.361366 62.436756 0.000000 0.000000 0.000000 28.360091 -7.773974 9.504190 8.662897 2.524531 -38.887179 -9.831460 20.896574 -21.919755 14.199554 57.351840 113.342331 0.000000 0.000000 0.000000 6.616415 2.316374 -0.169622 1.483979 -2.263916 -0.390843 0.000000 0.000000 0.000000 16.002343 2.437304 -2.800352 -5.191848 -4.539078 -2.437809 0.000000 0.000000 0.000000
0.095973 0.188148 0.107118 -1.587612 -1.570214 -3.182798 0.000000 0.000000 0.000000 -26.001647 11.745914 -3.393950 -49.958376 -8.888334 0.459298 0.000000 0.000000 0.000000 28.004918 -7.774099 9.503589 2.368056 2.530243 51.524672 -14.260484 -3.651663 28.388075 -79.022760 -12.375779 32.821102 0.000000 0.000000 0.000000 28.004918 -7.774099 9.503589 7.496271 2.053707 -35.659798 -7.639513 20.709979 -22.655723 12.158798 57.639195 112.300449 0.000000 0.000000 0.000000 7.855250 2.524920 0.147472 0.374249 -2.350108 -0.547739 0.000000 0.000000 0.000000 17.767116 2.789537 -2.746449 -7.590131 -4.961591 -2.569372 0.000000 0.000000 0.000000
0.096727 0.187058 0.108421 -1.255013 -1.553607 -3.149547 0.000000 0.000000 0.000000 -26.008109 11.447318 -3.371675 -49.294946 -8.835441 0.710741 0.000000 0.000000 0.000000 27.685614 -7.771886 9.505084 3.520150 2.644240 45.983610 -13.516184 -5.054583 29.054215 -76.233160 -17.523538 18.590047 0.000000 0.000000 0.000000 27.685614 -7.771886 9.505084 6.959841 1.835544 -31.975034 -5.356567 20.310011 -23.856225 9.559055 56.895899 110.458494 0.000000 0.000000 0.000000 7.701326 2.505206 0.184360 -0.520763 -2.325159 -0.460279 0.000000 0.000000 0.000000 17.363081 2.749524 -2.654664 -8.063299 -4.905151 -2.571840 0.000000 0.000000 0.000000
0.098069 0.185605 0.110478 -0.588323 -1.518196 -3.078587 0.000000 0.000000 0.000000 -26.010190 11.177755 -3.593769 -48.888143 -8.915406 1.023630 0.000000 0.000000 0.000000 27.048376 -7.771115 9.507020 4.460937 2.809029 39.883655 -11.755144 -7.106655 28.050844 -70.510300 -24.275379 -36.074731 0.000000 0.000000 0.000000 27.048376 -7.771115 9.507020 6.466960 1.709986 -28.507979 -3.260691 19.575022 -24.419066 6.707900 55.634893 107.221717 0.000000 0.000000 0.000000 7.631291 2.489427 0.312472 -2.816258 -2.236297 -0.246985 0.000000 0.000000 0.000000 17.116401 2.763520 -2.363517 -9.391434 -4.892305 -2.766668 0.000000 0.000000 0.000000
0.099890 0.184431 0.112509 0.112654 -1.518196 -3.076545 0.000000 0.000000 0.000000 -26.008706 11.142553 -3.699241 -48.020423 -9.219006 1.187014 0.000000 0.000000 0.000000 26.360052 -7.771113 9.506406 4.371406 2.787830 33.946043 -9.215662 -8.455327 26.407793 -62.315051 -28.376137 9.517561 0.000000 0.000000 0.000000 26.360052 -7.771113 9.506406 5.894705 1.396538 -25.184678 -1.277314 18.260700 -23.790737 2.721966 53.699194 101.155964 0.000000 0.000000 0.000000 6.309506 2.358194 0.617983 -5.516950 -2.005370 0.005368 0.000000 0.000000 0.000000 17.343095 2.942793 -1.719742 -11.512224 -4.978146 -3.385861 0.000000 0.000000 0.000000
0.102264 0.183410 0.114435 0.959339 -1.502705 -3.042037 0.000000 0.000000 0.000000 -26.001534 11.220593 -3.666840 -47.134811 -9.510678 1.107016 0.000000 0.000000 0.000000 25.528408 -7.770407 9.502825 5.744192 2.738889 28.263975 -7.721332 -8.377845 21.762946 -48.332710 -33.636068 7.755657 0.000000 0.000000 0.000000 25.528408 -7.770407 9.502825 6.031507 0.861995 -21.217190 0.282194 15.862138 -22.080066 -1.746838 48.044516 85.399310 0.000000 0.000000 0.000000 1.290161 1.759567 0.956067 -3.271858 -1.374912 0.221708 0.000000 0.000000 0.000000 15.848343 2.839572 -1.258324 -10.874114 -4.833823 -3.785206 0.000000 0.000000 0.000000
0.104305 0.182136 0.116262 1.751005 -1.474321 -2.979978 0.000000 0.000000 0.000000 -25.999551 11.109147 -3.852616 -46.976114 -9.740929 1.083544 0.000000 0.000000 0.000000 24.761618 -7.770194 9.502809 4.629642 2.503312 22.854989 -7.235289 -6.499534 18.101660 -33.086325 -29.091058 19.260024 0.000000 0.000000 0.000000 24.761618 -7.770194 9.502809 5.362542 0.602360 -16.834297 1.441989 12.887206 -19.236199 -2.006339 40.109884 58.600376 0.000000 0.000000 0.000000 0.473666 1.675433 1.323131 -2.601155 -1.194256 0.026172 0.000000 0.000000 0.000000 14.244643 2.647153 -1.260746 -10.844934 -4.587217 -3.503551 0.000000 0.000000 0.000000
0.105218 0.180683 0.118045 2.331654 -1.450298 -2.926232 0.000000 0.000000 0.000000 -26.010238 10.648904 -4.084530 -46.882859 -9.743986 1.333357 0.000000 0.000000 0.000000 24.202922 -7.769186 9.506639 2.165941 2.226307 18.905852 -7.463443 -3.937096 12.235527 -17.583243 -16.093992 27.529395 0.000000 0.000000 0.000000 24.202922 -7.769186 9.506639 4.976954 0.682525 -11.730532 1.191436 9.618889 -17.025530 -5.409056 32.025417 34.017513 0.000000 0.000000 0.000000 -0.880118 1.517077 1.904305 -2.270618 -0.797752 -0.078428 0.000000 0.000000 0.000000 11.445985 2.247217 -1.456639 -10.469495 -4.005272 -2.735996 0.000000 0.000000 0.000000
0.105150 0.179042 0.119153 1.989327 -1.370113 -2.758408 0.000000 0.000000 0.000000 -25.999087 10.791598 -4.155878 -45.830165 -10.097490 1.028461 0.000000 0.000000 0.000000 24.569791 -7.769244 9.505597 2.345374 1.993874 12.740400 -7.671438 -3.119973 8.807200 -8.905666 -8.590407 18.571213 0.000000 0.000000 0.000000 24.569791 -7.769244 9.505597 4.760071 0.302538 -6.591940 1.854010 7.674832 -16.496249 -4.888965 25.572969 21.473517 0.000000 0.000000 0.000000 -1.836972 1.295490 2.219865 -2.025148 -0.473996 -0.204401 0.000000 0.000000 0.000000 8.135842 1.606784 -1.732382 -7.800837 -3.257455 -2.059678 0.000000 0.000000 0.000000
0.104802 0.177283 0.119739 1.577216 -1.294054 -2.602535 0.000000 0.000000 0.000000 -25.976481 11.320393 -4.080913 -44.668123 -10.585922 0.446746 0.000000 0.000000 0.000000 25.004046 -7.769893 9.500394 0.896549 0.745374 6.076574 -6.903354 -2.442387 7.867630 -3.329594 -5.029814 11.375226 0.000000 0.000000 0.000000 25.004046 -7.769893 9.500394 4.234370 -0.296585 -3.142117 1.545343 5.658322 -14.026031 -4.351706 18.379927 13.110120 0.000000 0.000000 0.000000 -0.467773 1.334018 2.743870 -2.814874 -0.375179 -0.717793 0.000000 0.000000 0.000000 8.033096 1.436007 -1.980075 -7.524828 -3.075405 -1.735075 0.000000 0.000000 0.000000
0.104158 0.175819 0.119092 1.341394 -1.199519 -2.408440 0.000000 0.000000 0.000000 -25.959865 11.607012 -4.206729 -43.949209 -10.977485 0.061013 0.000000 0.000000 0.000000 25.274489 -7.770642 9.498203 -1.352545 -0.749782 -0.519767 -6.022609 -1.661462 9.391593 -0.123432 -1.972717 7.460769 0.000000 0.000000 0.000000 25.274489 -7.770642 9.498203 3.033804 -0.385853 -1.614229 1.269652 3.011764 -7.579956 -2.837763 8.797213 6.868080 0.000000 0.000000 0.000000 0.636881 1.317351 3.135852 -3.621785 -0.110783 -0.909216 0.000000 0.000000 0.000000 7.364642 1.200470 -2.129434 -7.058417 -2.857204 -1.612512 0.000000 0.000000 0.000000
0.103295 0.174135 0.118224 1.030542 -1.109620 -2.226870 0.000000 0.000000 0.000000 -25.949021 11.746318 -4.504873 -43.233268 -11.312149 0.017211 0.000000 0.000000 0.000000 25.620196 -7.772103 9.498138 -2.633434 -1.697632 -4.134632 -5.384384 -0.891345 9.886301 1.090163 0.331443 4.919215 0.000000 0.000000 0.000000 25.620196 -7.772103 9.498138 1.463653 -0.086583 -1.303889 0.604888 0.524187 0.445748 -1.827404 0.180535 2.435495 0.000000 0.000000 0.000000 2.595295 1.356058 3.500787 -5.105038 0.009718 -1.322832 0.000000 0.000000 0.000000 7.393572 1.066002 -2.267284 -6.224764 -2.780445 -1.513534 0.000000 0.000000 0.000000
0.102231 0.171916 0.118284 0.902798 -1.045151 -2.096187 0.000000 0.000000 0.000000 -25.946959 11.675519 -4.673046 -42.857861 -11.377441 0.052573 0.000000 0.000000 0.000000 25.773081 -7.772084 9.499065 -5.013146 -2.825421 -3.905422 -3.407187 0.588645 8.014168 1.434441 1.780589 3.160594 0.000000 0.000000 0.000000 25.773081 -7.772084 9.499065 -1.189388 0.549645 -1.369148 1.109296 -0.737630 4.823879 0.209917 -4.860479 1.367174 0.000000 0.000000 0.000000 6.259050 1.557180 3.467570 -8.788525 -0.010906 -1.492615 0.000000 0.000000 0.000000 7.675405 1.021606 -2.331847 -6.310045 -2.745627 -1.402622 0.000000 0.000000 0.000000
